<?xml version="1.0" encoding="iso-8859-1"?>
<!-- Generator: Adobe Illustrator 18.0.0, SVG Export Plug-In . SVG Version: 6.00 Build 0)  -->
<!DOCTYPE svg PUBLIC "-//W3C//DTD SVG 1.1//EN" "http://www.w3.org/Graphics/SVG/1.1/DTD/svg11.dtd">
<svg version="1.1" id="Capa_1" xmlns="http://www.w3.org/2000/svg" xmlns:xlink="http://www.w3.org/1999/xlink" x="0px" y="0px"
	 viewBox="0 0 485.34 485.34" style="enable-background:new 0 0 485.34 485.34;" xml:space="preserve">
<g>
	<path d="M89.472,275.122c-0.08-0.637-0.049-1.274-0.112-1.91c-33.377-15.01-56.732-48.514-56.732-87.418
		c0-52.846,42.999-95.844,95.846-95.844c30.397,0,57.496,14.274,75.07,36.435c6.658-1.019,13.429-1.705,20.375-1.705
		c6.149,0,12.203,0.557,18.21,1.385c-21.539-40.815-64.363-68.743-113.655-68.743C57.624,57.322,0,114.946,0,185.794
		c0,47.779,26.271,89.471,65.064,111.602C71.932,288.776,80.072,281.144,89.472,275.122z"/>
	<path d="M429.945,292.87c1.18-5.226,1.912-10.611,1.912-16.202c0-40.784-33.074-73.843-73.843-73.843
		c-15.422,0-29.73,4.747-41.581,12.84c-16.537-34.49-51.699-58.356-92.516-58.356c-56.717,0-102.68,45.978-102.68,102.679
		c0,11.917,2.119,23.291,5.863,33.934c-29.489,7.535-51.379,34.046-51.379,65.878c0,37.677,30.556,68.219,68.219,68.219h273.18
		c37.678,0,68.219-30.542,68.219-68.219C485.34,326.516,461.475,298.892,429.945,292.87z"/>
</g>
<g>
</g>
<g>
</g>
<g>
</g>
<g>
</g>
<g>
</g>
<g>
</g>
<g>
</g>
<g>
</g>
<g>
</g>
<g>
</g>
<g>
</g>
<g>
</g>
<g>
</g>
<g>
</g>
<g>
</g>
</svg>
